<svg width="25" height="20" viewBox="0 0 25 20" fill="none" xmlns="http://www.w3.org/2000/svg">
<path d="M13.8885 20C13.5737 20.0016 13.2677 19.9068 13.0207 19.731L6.45826 14.9994H4.16662C3.06128 14.9994 2.00176 14.604 1.22022 13.9011C0.439281 13.1982 0 12.2441 0 11.2492V8.7489C0 7.75457 0.439281 6.80041 1.22022 6.09699C2.00117 5.39356 3.06128 4.99872 4.16662 4.99872H6.45826L13.0207 0.274025C13.2945 0.076873 13.6409 -0.020096 13.9903 0.00347658C14.3403 0.0265134 14.6671 0.167949 14.9058 0.398853C15.1445 0.629757 15.2772 0.933522 15.2778 1.24907V18.7501C15.279 18.9864 15.2058 19.2178 15.0671 19.4176C14.9284 19.6175 14.729 19.7782 14.4933 19.881C14.304 19.9593 14.0969 20.0005 13.8885 20ZM4.16662 7.49955C3.79817 7.49955 3.4452 7.63135 3.18449 7.866C2.92378 8.10065 2.77794 8.41835 2.77794 8.74997V11.2503C2.77794 11.5819 2.92437 11.8996 3.18449 12.1342C3.4446 12.3689 3.79817 12.5002 4.16662 12.5002H6.94456C7.26004 12.5002 7.56658 12.5977 7.81241 12.7755L12.4999 16.1507V3.85598L7.81241 7.23115C7.56539 7.40687 7.25944 7.50116 6.94456 7.50009L4.16662 7.49955Z" fill="white"/>
<path d="M17.7355 13.0497C17.3677 13.0497 17.0147 12.9184 16.754 12.6849C16.4933 12.4507 16.3468 12.1336 16.3456 11.8025C16.3451 11.4714 16.4903 11.1532 16.7498 10.9185C17.1397 10.5671 17.3593 10.0903 17.3593 9.59364C17.3593 9.09701 17.1403 8.6202 16.7498 8.26875C16.3962 7.94731 16.2605 7.48014 16.3927 7.04405C16.5254 6.60796 16.9064 6.2683 17.3927 6.15365C17.879 6.039 18.3962 6.16597 18.7498 6.48795C19.6617 7.30817 20.1736 8.42144 20.1736 9.58185C20.1736 10.7423 19.6611 11.855 18.7498 12.6758C18.4831 12.9206 18.1165 13.0561 17.7355 13.0508V13.0497Z" fill="white"/>
<path d="M21.173 16.1436C20.7974 16.1506 20.4343 16.0204 20.1664 15.7825C19.8992 15.5446 19.7504 15.2194 19.7539 14.8809C19.7575 14.5423 19.9141 14.2198 20.1867 13.9872C21.489 12.815 22.22 11.2255 22.22 9.56846C22.22 7.91141 21.4885 6.32187 20.1867 5.14967C19.8361 4.83359 19.6986 4.37339 19.8272 3.94158C19.9557 3.51031 20.3301 3.17279 20.8099 3.05707C21.289 2.94135 21.8009 3.06457 22.1521 3.38066C23.9753 5.02163 24.9997 7.24763 24.9997 9.56846C24.9997 11.8893 23.9753 14.1153 22.1521 15.7563C21.8962 15.9979 21.5438 16.1372 21.173 16.1436Z" fill="white"/>
</svg>
