<svg width="25" height="20" viewBox="0 0 25 20" fill="none" xmlns="http://www.w3.org/2000/svg">
<path fill-rule="evenodd" clip-rule="evenodd" d="M12.8547 13.4878C12.6641 13.2816 12.3365 13.2816 12.1459 13.4878L6.85719 19.202C6.57439 19.5071 6.79332 20 7.21159 20H17.7889C18.2072 20 18.4261 19.5071 18.1433 19.202L12.8547 13.4878ZM0 15.2429V1.9C0 0.85051 0.858179 0 1.91828 0H23.0817C24.1413 0 25 0.85 25 1.9V15.2429C25 16.2923 24.1362 17.1429 23.0786 17.1429H20.1832C19.6572 17.1429 19.2307 16.7199 19.2307 16.1903C19.2307 15.6607 19.6567 15.2378 20.2012 15.2378H23.0766V1.9051H1.92343V15.2383H4.7988C5.33503 15.2383 5.76927 15.6612 5.76927 16.1908C5.76927 16.7204 5.33554 17.1434 4.81683 17.1434H1.92137C0.860239 17.1429 0 16.2929 0 15.2429Z" fill="white"/>
</svg>
