<?xml version="1.0" encoding="utf-8"?>
<!-- Generator: Adobe Illustrator 27.3.1, SVG Export Plug-In . SVG Version: 6.00 Build 0)  -->
<svg version="1.1" id="Layer_1" xmlns="http://www.w3.org/2000/svg" xmlns:xlink="http://www.w3.org/1999/xlink" x="0px" y="0px"
	 viewBox="0 0 566.9 566.9" style="enable-background:new 0 0 566.9 566.9;" xml:space="preserve">
<style type="text/css">
	.st0{fill:#FFFFFF;stroke:#FFFFFF;stroke-width:1.3333;stroke-miterlimit:10;}
	.st1{fill:none;stroke:#000000;stroke-width:30;stroke-linecap:round;stroke-linejoin:round;stroke-miterlimit:10;}
	.st2{fill:none;stroke:#000000;stroke-width:20;stroke-linecap:round;stroke-linejoin:round;stroke-miterlimit:10;}
	.st3{fill:#FFFFFF;}
	.st4{stroke:#000000;stroke-width:1.0011;stroke-linejoin:round;stroke-miterlimit:10;}
	.st5{stroke:#000000;stroke-width:20;stroke-miterlimit:10;}
</style>
<path class="st3" d="M99.2,396.9c0,15.7-12.7,28.3-28.3,28.3s-28.3-12.7-28.3-28.3c0-15.7,12.7-28.3,28.3-28.3
	S99.2,381.2,99.2,396.9z M109.2,396.9c0-21.1-17.2-38.3-38.3-38.3c-21.1,0-38.3,17.2-38.3,38.3s17.2,38.3,38.3,38.3
	C92,435.2,109.2,418,109.2,396.9z M89.2,396.9c0,10.1-8.2,18.3-18.3,18.3s-18.3-8.2-18.3-18.3s8.2-18.3,18.3-18.3
	S89.2,386.7,89.2,396.9z M539.4,393.9V144.6c0-9.9-8-17.9-17.9-17.9H73.8c-9.9,0-17.9,8-17.9,17.9l0,82.1c0,8.3,6.7,15,15,15
	s15-6.7,15-15l0-70h423.5v225.1H240.9c-8.3,0-15,6.7-15,15s6.7,15,15,15h280.6C531.4,411.9,539.4,403.8,539.4,393.9z M211.1,426.5
	c6.1-47.1-9.6-93.4-43.1-127c-33.5-33.5-79.7-49.2-126.7-43.2c-5.5,0.7-9.3,5.7-8.6,11.2c0.7,5.5,5.7,9.3,11.2,8.6
	c40.8-5.2,80.9,8.4,110,37.5c29.1,29.1,42.8,69.3,37.5,110.3c-0.7,5.5,3.1,10.5,8.6,11.2c0.4,0.1,0.9,0.1,1.3,0.1
	C206.1,435.2,210.4,431.5,211.1,426.5z M153.4,427.4c7-31.9-2.5-64.7-25.6-87.8c-23-23-55.7-32.6-87.5-25.6
	c-5.4,1.2-8.8,6.5-7.6,11.9c1.2,5.4,6.5,8.8,11.9,7.6c25.1-5.5,50.9,2.1,69.1,20.2c18.2,18.2,25.8,44.1,20.2,69.3
	c-1.2,5.4,2.2,10.7,7.6,11.9c0.7,0.2,1.5,0.2,2.2,0.2C148.3,435.2,152.4,432,153.4,427.4z"/>
</svg>
