<?xml version="1.0" encoding="utf-8"?>
<!-- Generator: Adobe Illustrator 27.3.1, SVG Export Plug-In . SVG Version: 6.00 Build 0)  -->
<svg version="1.1" id="Layer_1" xmlns="http://www.w3.org/2000/svg" xmlns:xlink="http://www.w3.org/1999/xlink" x="0px" y="0px"
	 viewBox="0 0 566.9 566.9" style="enable-background:new 0 0 566.9 566.9;" xml:space="preserve">
<style type="text/css">
	.st0{fill:#FFFFFF;stroke:#FFFFFF;stroke-width:1.3333;stroke-miterlimit:10;}
	.st1{fill:none;stroke:#000000;stroke-width:30;stroke-linecap:round;stroke-linejoin:round;stroke-miterlimit:10;}
	.st2{fill:none;stroke:#000000;stroke-width:20;stroke-linecap:round;stroke-linejoin:round;stroke-miterlimit:10;}
	.st3{fill:#FFFFFF;}
	.st4{stroke:#000000;stroke-width:1.0011;stroke-linejoin:round;stroke-miterlimit:10;}
	.st5{stroke:#000000;stroke-width:20;stroke-miterlimit:10;}
</style>
<path class="st3" d="M351.8,382.2c-8.3,0-15-6.7-15-15s6.7-15,15-15l143.4,0V127.1H71.7v225.1l141.2,0c8.3,0,15,6.7,15,15
	s-6.7,15-15,15l0,0l-153.3,0c-9.9,0-17.9-8-17.9-17.9V115c0-9.9,8-17.9,17.9-17.9h447.7c9.9,0,17.9,8,17.9,17.9v249.3
	c0,9.9-8,17.9-17.9,17.9L351.8,382.2z M283.5,367.2 M283.5,367.2 M370.3,451l-51.9-75.3l-32.3-46.9c-1.2-1.7-4.1-1.7-5.3,0
	l-32.3,46.9L196.6,451c-1.2,1.7,0.3,3.9,2.7,3.9l168.4,0C370,454.8,371.5,452.7,370.3,451z M370.9,453.5c0.5-0.9,0.4-2-0.2-2.8l0,0
	l-84.2-122.2c-0.6-0.9-1.8-1.5-3.1-1.5s-2.4,0.6-3.1,1.5l-84.2,122.2c-0.6,0.9-0.7,1.9-0.2,2.8c0.6,1.1,1.8,1.8,3.3,1.8h168.4
	C369.1,455.3,370.3,454.7,370.9,453.5z M285.7,329.1l84.2,122.2c0.4,0.6,0.4,1.2,0.1,1.8c-0.4,0.8-1.3,1.3-2.4,1.3H199.3
	c-1,0-2-0.5-2.4-1.3c-0.3-0.6-0.3-1.2,0.1-1.8l84.2-122.2c0.5-0.7,1.3-1.1,2.2-1.1S285.2,328.4,285.7,329.1z"/>
</svg>
