<?xml version="1.0" encoding="utf-8"?>
<!-- Generator: Adobe Illustrator 27.3.1, SVG Export Plug-In . SVG Version: 6.00 Build 0)  -->
<svg version="1.1" id="Layer_1" xmlns="http://www.w3.org/2000/svg" xmlns:xlink="http://www.w3.org/1999/xlink" x="0px" y="0px"
	 viewBox="0 0 566.9 566.9" style="enable-background:new 0 0 566.9 566.9;" xml:space="preserve">
<style type="text/css">
	.st0{fill:#FFFFFF;stroke:#FFFFFF;stroke-width:1.3333;stroke-miterlimit:10;}
	.st1{fill:none;stroke:#000000;stroke-width:30;stroke-linecap:round;stroke-linejoin:round;stroke-miterlimit:10;}
	.st2{fill:none;stroke:#000000;stroke-width:20;stroke-linecap:round;stroke-linejoin:round;stroke-miterlimit:10;}
	.st3{fill:#FFFFFF;}
	.st4{stroke:#000000;stroke-width:1.0011;stroke-linejoin:round;stroke-miterlimit:10;}
	.st5{stroke:#000000;stroke-width:20;stroke-miterlimit:10;}
</style>
<path class="st3" d="M510.2,210.6c-8.3,0-15-6.7-15-15v-70H340.2c-8.3,0-15-6.7-15-15s6.7-15,15-15h167.2c9.9,0,17.9,8,17.9,17.9
	v82.1C525.2,203.9,518.5,210.6,510.2,210.6z M525.2,362.7v-82.1c0-8.3-6.7-15-15-15c-8.3,0-15,6.7-15,15v70H340.2
	c-8.3,0-15,6.7-15,15s6.7,15,15,15h167.2C517.2,380.7,525.2,372.6,525.2,362.7z M241.8,365.7c0-8.3-6.7-15-15-15h-155l0.3-70
	c0-8.3-6.7-15-14.9-15.1c0,0,0,0-0.1,0c-8.3,0-15,6.7-15,14.9l-0.3,85c0,4,1.6,7.8,4.4,10.6c2.8,2.8,6.6,4.4,10.6,4.4h170.1
	C235.1,380.7,241.8,373.9,241.8,365.7z M57.1,210.6c8.3,0,15-6.8,14.9-15.1l-0.3-70h155c8.3,0,15-6.7,15-15s-6.7-15-15-15H59.6
	c-9.9,0-17.9,8-17.9,18l0.3,82.1C42.1,203.9,48.8,210.6,57.1,210.6C57,210.6,57.1,210.6,57.1,210.6z"/>
</svg>
