<svg width="25" height="20" viewBox="0 0 25 20" fill="none" xmlns="http://www.w3.org/2000/svg">
<path fill-rule="evenodd" clip-rule="evenodd" d="M24.6933 19.7568C24.5054 19.9068 24.2469 19.9996 23.963 19.9996H15.6203C15.0475 19.9996 14.5832 19.63 14.5832 19.1664C14.5832 18.7029 15.0511 18.3329 15.6203 18.3329H22.9166V12.4958C22.9166 12.0376 23.379 11.6662 23.9585 11.6662C24.538 11.6662 25 12.0405 25 12.4958V19.17C25 19.3986 24.8853 19.6054 24.6978 19.7554L24.6933 19.7568ZM24.6946 0.241781C24.5067 0.0921412 24.2482 0 23.963 0H15.6203C15.0511 0 14.5832 0.37285 14.5832 0.833199C14.5832 1.29355 15.0475 1.66676 15.6203 1.66676H22.9166V7.50379C22.9166 7.95914 23.3831 8.33342 23.9585 8.33342C24.5339 8.33342 25 7.962 25 7.50379V0.829628C25 0.602489 24.8839 0.395707 24.6964 0.245353L24.6946 0.241781ZM0.305352 19.7582C0.492848 19.9079 0.751326 20 1.03703 20H9.37974C9.94893 20 10.4168 19.6268 10.4168 19.1668C10.4168 18.7068 9.9525 18.3332 9.37974 18.3332H2.08344V12.4962C2.08344 12.0409 1.61694 11.6666 1.0415 11.6666C0.466063 11.6666 0 12.038 0 12.4958V19.17C0 19.3972 0.116069 19.6039 0.303566 19.7543L0.305352 19.7582ZM0.302227 0.244281C0.115176 0.394279 0 0.601061 0 0.829628V7.50379C0 7.95914 0.466063 8.33342 1.0415 8.33342C1.61694 8.33342 2.08344 7.962 2.08344 7.50379V1.66676H9.37974C9.94893 1.66676 10.4168 1.29355 10.4168 0.833199C10.4168 0.37285 9.9525 0 9.37974 0H1.03703C0.753111 0 0.494634 0.0928555 0.306691 0.242853L0.302227 0.244281Z" fill="white"/>
</svg>
