<?xml version="1.0" encoding="utf-8"?>
<!-- Generator: Adobe Illustrator 27.3.1, SVG Export Plug-In . SVG Version: 6.00 Build 0)  -->
<svg version="1.1" id="Layer_1" xmlns="http://www.w3.org/2000/svg" xmlns:xlink="http://www.w3.org/1999/xlink" x="0px" y="0px"
	 viewBox="0 0 566.9 566.9" style="enable-background:new 0 0 566.9 566.9;" xml:space="preserve">
<style type="text/css">
	.st0{fill:#FFFFFF;stroke:#FFFFFF;stroke-width:1.3333;stroke-miterlimit:10;}
	.st1{fill:none;stroke:#000000;stroke-width:30;stroke-linecap:round;stroke-linejoin:round;stroke-miterlimit:10;}
	.st2{fill:none;stroke:#000000;stroke-width:20;stroke-linecap:round;stroke-linejoin:round;stroke-miterlimit:10;}
	.st3{fill:#FFFFFF;}
	.st4{stroke:#000000;stroke-width:1.0011;stroke-linejoin:round;stroke-miterlimit:10;}
	.st5{stroke:#000000;stroke-width:20;stroke-miterlimit:10;}
</style>
<path id="Pause" class="st0" d="M510.2,283.5c0,125.2-101.5,226.8-226.8,226.8S56.7,408.7,56.7,283.5S158.2,56.7,283.5,56.7
	S510.2,158.2,510.2,283.5z M256.8,393.4V173.6c0-2-1.6-3.6-3.6-3.6h-49.4c-2,0-3.6,1.6-3.6,3.6v219.8c0,2,1.6,3.6,3.6,3.6h49.4
	C255.2,397,256.8,395.4,256.8,393.4z M366.8,393.2V173.8c0-2.1-1.7-3.8-3.8-3.8h-49c-2.1,0-3.8,1.7-3.8,3.8v219.4
	c0,2.1,1.7,3.8,3.8,3.8h49C365.1,397,366.8,395.3,366.8,393.2z"/>
</svg>
