<svg width="20" height="20" viewBox="0 0 20 20" fill="none" xmlns="http://www.w3.org/2000/svg">
<path d="M19.2134 6.10713C18.7088 4.91648 17.9891 3.8474 17.0708 2.92916C16.1526 2.01093 15.0835 1.29121 13.8929 0.78662C12.6594 0.265413 11.3511 0 10 0C8.64888 0 7.34106 0.265413 6.10713 0.78662C4.91648 1.29121 3.8474 2.01093 2.92916 2.92916C2.01093 3.8474 1.29121 4.91605 0.78662 6.10713C0.265413 7.34106 0 8.65151 0 10C0 11.3485 0.263227 12.6589 0.78662 13.8929C1.29121 15.0835 2.01093 16.1526 2.92916 17.0708C3.8474 17.9891 4.91648 18.7088 6.10713 19.2134C7.34106 19.7346 8.64888 20 10 20C11.3511 20 12.6589 19.7346 13.8929 19.2134C15.0835 18.7088 16.1526 17.9891 17.0708 17.0708C17.9891 16.1526 18.7088 15.0835 19.2134 13.8929C19.7346 12.6589 20 11.3511 20 10C20 8.64888 19.7346 7.34106 19.2134 6.10713ZM12.805 10.2777L8.54132 13.2833C8.48404 13.324 8.41452 13.3454 8.34543 13.3454C8.29296 13.3454 8.23787 13.3336 8.19021 13.307C8.07783 13.2497 8.00831 13.1325 8.00831 13.0057V6.99475C8.00831 6.86795 8.07783 6.75339 8.19021 6.69349C8.30258 6.6362 8.43638 6.6432 8.54176 6.71753L12.8076 9.72322C12.8986 9.78793 12.951 9.89069 12.951 10.0004C12.951 10.1102 12.8959 10.2134 12.805 10.2777Z" fill="#FEFEFE"/>
</svg>
