<svg width="20" height="20" viewBox="0 0 20 20" fill="none" xmlns="http://www.w3.org/2000/svg">
<path d="M8.60375 0.0008928C8.46328 0.0155744 8.33074 0.0746976 8.22599 0.169533C8.12123 0.264368 8.04901 0.390153 8.02043 0.528636L7.50656 2.90348C7.24664 2.99475 6.99586 3.09792 6.74983 3.21616L4.70147 1.90394C4.5733 1.82141 4.42052 1.7853 4.26894 1.80197C4.11736 1.81824 3.97569 1.88609 3.86816 1.99441L1.9932 3.86929C1.88487 3.97683 1.81702 4.11809 1.80075 4.27006C1.78448 4.42164 1.82059 4.57441 1.90273 4.70257L3.215 6.75085C3.09714 6.99727 2.99397 7.24765 2.90231 7.50755L0.527368 8.02141C0.377768 8.05315 0.244042 8.13569 0.147615 8.25433C0.0523796 8.37297 0 8.52137 0 8.67414V11.3267C0 11.4795 0.0523797 11.6279 0.148012 11.7466C0.244042 11.8656 0.378165 11.9477 0.527765 11.9795L2.90271 12.4933C2.99397 12.7532 3.09714 13.004 3.2154 13.25L1.90313 15.2983C1.82059 15.4265 1.78448 15.5793 1.80115 15.7308C1.81741 15.8824 1.88527 16.0241 1.9936 16.1316L3.86855 18.0065C3.97609 18.1148 4.11736 18.1827 4.26934 18.1989C4.42092 18.2152 4.5737 18.1791 4.70187 18.0969L6.75023 16.7847C6.99665 16.9026 7.24704 17.0057 7.50695 17.0974L8.02083 19.4723C8.05258 19.6218 8.13511 19.7556 8.25376 19.852C8.37241 19.948 8.52082 20.0004 8.67359 20H11.3263C11.4791 20 11.6275 19.9476 11.7461 19.852C11.8652 19.756 11.9473 19.6218 11.9791 19.4723L12.4929 17.0974C12.7529 17.0061 13.0036 16.903 13.2497 16.7847L15.298 18.0969C15.4262 18.1795 15.579 18.2156 15.7306 18.1989C15.8821 18.1827 16.0238 18.1148 16.1313 18.0065L18.0063 16.1316C18.1146 16.0241 18.1825 15.8828 18.1988 15.7308C18.215 15.5793 18.1789 15.4265 18.0968 15.2983L16.7845 13.25C16.9024 13.0036 17.0055 12.7532 17.0972 12.4933L19.4721 11.9795C19.6217 11.9477 19.7555 11.8652 19.8519 11.7466C19.9479 11.6279 20.0003 11.4795 19.9999 11.3267V8.67414C19.9999 8.52137 19.9475 8.37297 19.8519 8.25433C19.7559 8.13529 19.6217 8.05315 19.4721 8.02141L17.0972 7.50755C17.0059 7.24765 16.9028 6.99687 16.7845 6.75085L18.0968 4.70257C18.1793 4.57441 18.2154 4.42164 18.1988 4.27006C18.1825 4.11848 18.1146 3.97683 18.0063 3.86929L16.1313 1.99441C16.0238 1.88609 15.8825 1.81824 15.7306 1.80197C15.579 1.7857 15.4262 1.82181 15.298 1.90394L13.2497 3.21616C13.0032 3.09831 12.7529 2.99514 12.4929 2.90348L11.9791 0.528636C11.9473 0.379043 11.8648 0.245321 11.7461 0.148899C11.6275 0.0528736 11.4791 0.000496 11.3263 0.0008928H8.67359C8.65058 -0.0002976 8.62677 -0.0002976 8.60375 0.0008928ZM9.2081 1.33414H10.7914L11.2636 3.5217C11.289 3.63915 11.3454 3.74787 11.4271 3.83557C11.5088 3.92326 11.6132 3.98794 11.7287 4.02127C12.1759 4.15062 12.608 4.32919 13.0064 4.54901C13.1112 4.60695 13.2298 4.63551 13.3497 4.63194C13.4695 4.62837 13.5862 4.59226 13.687 4.52838L15.5691 3.32012L16.6801 4.43116L15.4718 6.31318C15.4076 6.41437 15.3718 6.53063 15.3683 6.65046C15.3647 6.7703 15.3933 6.88854 15.4512 6.9937C15.671 7.39208 15.8496 7.8242 15.979 8.27139C16.0127 8.38686 16.0766 8.49122 16.1647 8.57296C16.2528 8.6547 16.3611 8.71144 16.4786 8.73644L18.6658 9.20863V10.7919L16.4786 11.2641C16.3611 11.2894 16.2524 11.3458 16.1647 11.4275C16.077 11.5093 16.0123 11.6136 15.979 11.7291C15.8496 12.1763 15.671 12.6084 15.4512 13.0068C15.3933 13.1116 15.3647 13.2302 15.3683 13.35C15.3718 13.4699 15.4079 13.5865 15.4718 13.6873L16.6801 15.5693L15.5691 16.6804L13.687 15.4721C13.5858 15.4078 13.4695 15.3721 13.3497 15.3686C13.2298 15.365 13.1116 15.3935 13.0064 15.4515C12.608 15.6713 12.1759 15.8499 11.7287 15.9792C11.6132 16.013 11.5088 16.0768 11.4271 16.1649C11.3454 16.253 11.2886 16.3613 11.2636 16.4788L10.7914 18.666H9.2081L8.73589 16.4788C8.7105 16.3613 8.65415 16.2526 8.5724 16.1649C8.49066 16.0772 8.3863 16.0126 8.27082 15.9792C7.82361 15.8499 7.39148 15.6713 6.99308 15.4515C6.88832 15.3935 6.76967 15.365 6.64983 15.3686C6.53 15.3721 6.41333 15.4082 6.31254 15.4721L4.43044 16.6804L3.31936 15.5693L4.52766 13.6873C4.59195 13.5861 4.62766 13.4699 4.63123 13.35C4.6348 13.2302 4.60623 13.112 4.5483 13.0068C4.32846 12.6084 4.1499 12.1763 4.02053 11.7291C3.9868 11.6136 3.92292 11.5093 3.83482 11.4275C3.74673 11.3458 3.6384 11.2891 3.52094 11.2641L1.3337 10.7919V9.20863L3.52094 8.73644C3.6384 8.71104 3.74713 8.6547 3.83482 8.57296C3.92252 8.49122 3.9872 8.38686 4.02053 8.27139C4.1499 7.8242 4.32846 7.39208 4.5483 6.9937C4.60623 6.88894 4.6348 6.7703 4.63123 6.65046C4.62766 6.53063 4.59155 6.41397 4.52766 6.31318L3.31936 4.43116L4.43044 3.32012L6.31254 4.52838C6.41373 4.59266 6.53 4.62837 6.64983 4.63194C6.76967 4.63551 6.88792 4.60695 6.99308 4.54901C7.39148 4.32919 7.82361 4.15062 8.27082 4.02127C8.3863 3.98754 8.49066 3.92366 8.5724 3.83557C8.65415 3.74748 8.71089 3.63915 8.73589 3.5217L9.2081 1.33414ZM9.99975 5.33388C7.43037 5.33388 5.3332 7.43097 5.3332 10.0002C5.3332 12.5695 7.43037 14.6666 9.99975 14.6666C12.5691 14.6666 14.6663 12.5695 14.6663 10.0002C14.6663 7.43097 12.5691 5.33388 9.99975 5.33388ZM9.99975 6.66713C11.8485 6.66713 13.333 8.15156 13.333 10.0002C13.333 11.8489 11.8485 13.3334 9.99975 13.3334C8.15099 13.3334 6.6665 11.8489 6.6665 10.0002C6.6665 8.15156 8.15099 6.66713 9.99975 6.66713Z" fill="white"/>
</svg>
