<?xml version="1.0" encoding="utf-8"?>
<!-- Generator: Adobe Illustrator 27.3.1, SVG Export Plug-In . SVG Version: 6.00 Build 0)  -->
<svg version="1.1" id="Layer_1" xmlns="http://www.w3.org/2000/svg" xmlns:xlink="http://www.w3.org/1999/xlink" x="0px" y="0px"
	 viewBox="0 0 566.9 566.9" style="enable-background:new 0 0 566.9 566.9;" xml:space="preserve">
<style type="text/css">
	.st0{fill:#FFFFFF;stroke:#FFFFFF;stroke-width:1.3333;stroke-miterlimit:10;}
	.st1{fill:none;stroke:#000000;stroke-width:30;stroke-linecap:round;stroke-linejoin:round;stroke-miterlimit:10;}
	.st2{fill:none;stroke:#000000;stroke-width:20;stroke-linecap:round;stroke-linejoin:round;stroke-miterlimit:10;}
	.st3{fill:#FFFFFF;}
	.st4{stroke:#000000;stroke-width:1.0011;stroke-linejoin:round;stroke-miterlimit:10;}
	.st5{stroke:#000000;stroke-width:20;stroke-miterlimit:10;}
	.st6{fill:#FF0A55;}
</style>
<path class="st3" d="M68.4,255.9H56.7c-8.3,0-15-6.7-15-15s6.7-15,15-15l155.1,0v-70c0-8.3,6.7-15,15-15s15,6.7,15,15V238
	c0,9.9-8,17.9-17.9,17.9L68.4,255.9z M525.2,240.9c0-8.3-6.7-15-15-15H355.2v-70c0-8.3-6.7-15-15-15s-15,6.7-15,15v85
	c0,8.3,6.7,15,15,15h170.1C518.5,255.9,525.2,249.2,525.2,240.9z M241.8,411v-82.1c0-9.9-8-17.9-17.9-17.9H56.7c-8.3,0-15,6.7-15,15
	s6.7,15,15,15h155.1v70c0,8.3,6.7,15,15,15S241.8,419.3,241.8,411z M355.2,411v-70h155.1c8.3,0,15-6.7,15-15s-6.7-15-15-15H343.1
	c-9.9,0-17.9,8-17.9,17.9V411c0,8.3,6.7,15,15,15S355.2,419.3,355.2,411z"/>
<g>
	<circle class="st6" cx="383" cy="199.3" r="56.7"/>
</g>
</svg>
