<?xml version="1.0" encoding="utf-8"?>
<!-- Generator: Adobe Illustrator 27.3.1, SVG Export Plug-In . SVG Version: 6.00 Build 0)  -->
<svg version="1.1" id="Layer_1" xmlns="http://www.w3.org/2000/svg" xmlns:xlink="http://www.w3.org/1999/xlink" x="0px" y="0px"
	 viewBox="0 0 566.9 566.9" style="enable-background:new 0 0 566.9 566.9;" xml:space="preserve">
<style type="text/css">
	.st0{fill:#FFFFFF;stroke:#FFFFFF;stroke-width:1.3333;stroke-miterlimit:10;}
	.st1{fill:none;stroke:#000000;stroke-width:30;stroke-linecap:round;stroke-linejoin:round;stroke-miterlimit:10;}
	.st2{fill:none;stroke:#000000;stroke-width:20;stroke-linecap:round;stroke-linejoin:round;stroke-miterlimit:10;}
	.st3{fill:#FFFFFF;}
	.st4{stroke:#000000;stroke-width:1.0011;stroke-linejoin:round;stroke-miterlimit:10;}
	.st5{stroke:#000000;stroke-width:20;stroke-miterlimit:10;}
</style>
<path class="st3" d="M118,471.4c-2.2,0-4.5-0.4-6.7-1.3c-7.7-3.1-12.2-11-11.1-19.2l10-70.3H59.6c-9.9,0-17.9-8-17.9-17.9V113.4
	c0-9.9,8-17.9,17.9-17.9h447.7c9.9,0,17.9,8,17.9,17.9v249.3c0,9.9-8,17.9-17.9,17.9H192l-59.4,83.2
	C129.1,468.7,123.6,471.4,118,471.4z M71.7,350.7h52.5c5.2,0,10.1,2.3,13.5,6.2c3.4,3.9,4.9,9.1,4.2,14.3l-5,35l34.2-47.9
	c3.4-4.7,8.8-7.5,14.6-7.5h309.5V125.5H71.7V350.7z M157.4,323.2c0-5.5-4.5-10-10-10l-34,0c0,0,0,0,0,0c-5.5,0-10,4.5-10,10
	c0,5.5,4.5,10,10,10l34,0c0,0,0,0,0,0C152.9,333.2,157.4,328.7,157.4,323.2z M293.5,323.1c0-5.5-4.5-10-10-10h-85
	c-5.5,0-10,4.5-10,10s4.5,10,10,10h85C289,333.1,293.5,328.7,293.5,323.1z M334.5,333.2l119.1,0c5.5,0,10-4.5,10-10s-4.5-10-10-10
	c0,0,0,0,0,0l-119.1,0c-5.5,0-10,4.5-10,10S329,333.2,334.5,333.2C334.5,333.2,334.5,333.2,334.5,333.2z M199.9,294.8
	c0-5.5-4.5-10-10-10h-68c-5.5,0-10,4.5-10,10s4.5,10,10,10h68C195.4,304.8,199.9,300.3,199.9,294.8z M341.7,294.8
	c0-5.5-4.5-10-10-10h-96.4c-5.5,0-10,4.5-10,10s4.5,10,10,10h96.4C337.2,304.8,341.7,300.3,341.7,294.8z M377,304.8l48.2,0
	c5.5,0,10-4.5,10-10c0-5.5-4.5-10-10-10c0,0,0,0,0,0l-48.2,0c-5.5,0-10,4.5-10,10C367,300.3,371.5,304.8,377,304.8
	C377,304.8,377,304.8,377,304.8z"/>
</svg>
