<svg width="25" height="20" viewBox="0 0 25 20" fill="none" xmlns="http://www.w3.org/2000/svg">
<path d="M21.9679 0H3.03214C1.36027 0 0 1.26834 0 2.82723V17.1728C0 18.7317 1.36027 20 3.03214 20H21.9679C23.6397 20 25 18.7321 25 17.1728V2.82723C25 1.26834 23.6397 0 21.9679 0ZM23.1513 17.1728C23.1513 17.7805 22.621 18.2759 21.9679 18.2759H3.03214C2.37902 18.2759 1.84911 17.7805 1.84911 17.1728V2.82682C1.84911 2.21908 2.37946 1.72331 3.03214 1.72331H21.9674C22.6205 1.72331 23.1509 2.21908 23.1509 2.82682V17.1728H23.1513ZM18.4174 13.8618H17.2339V12.7588H18.4174V13.8618ZM16.0504 13.8618H6.58304V12.7588H16.0509V13.8618H16.0504ZM16.0504 14.9658H20.7848V16.0688H16.0504V14.9658ZM4.21562 14.9658H5.39911V16.0688H4.21562V14.9658ZM6.58304 14.9658H14.8674V16.0688H6.58259V14.9658H6.58304Z" fill="white"/>
</svg>
