<?xml version="1.0" encoding="utf-8"?>
<!-- Generator: Adobe Illustrator 27.3.1, SVG Export Plug-In . SVG Version: 6.00 Build 0)  -->
<svg version="1.1" id="Layer_1" xmlns="http://www.w3.org/2000/svg" xmlns:xlink="http://www.w3.org/1999/xlink" x="0px" y="0px"
	 viewBox="0 0 566.9 566.9" style="enable-background:new 0 0 566.9 566.9;" xml:space="preserve">
<style type="text/css">
	.st0{fill:#FFFFFF;stroke:#FFFFFF;stroke-width:1.3333;stroke-miterlimit:10;}
	.st1{fill:none;stroke:#000000;stroke-width:30;stroke-linecap:round;stroke-linejoin:round;stroke-miterlimit:10;}
	.st2{fill:none;stroke:#000000;stroke-width:20;stroke-linecap:round;stroke-linejoin:round;stroke-miterlimit:10;}
	.st3{fill:#FFFFFF;}
	.st4{stroke:#000000;stroke-width:1.0011;stroke-linejoin:round;stroke-miterlimit:10;}
	.st5{stroke:#000000;stroke-width:20;stroke-miterlimit:10;}
</style>
<path class="st3" d="M271.5,493.8c-4.1,0-8.2-1.5-11.5-4.3L124.4,372.2H67.8c-9.7,0-17.6-8-17.6-17.9V212.7
	c0-9.9,7.9-17.9,17.6-17.9h56.5L260.1,77.4c0,0,0,0,0,0c5.2-4.5,12.5-5.5,18.7-2.7c6.3,2.9,10.4,9.3,10.4,16.3v384.9
	c0,7-4.1,13.5-10.4,16.3C276.5,493.3,274,493.8,271.5,493.8z M80.2,342.2H129c4.2,0,8.3,1.5,11.4,4.3l118.7,102.6V117.8L140.5,220.5
	c-3.2,2.8-7.2,4.3-11.4,4.3H80.2V342.2z M120.9,369.1C120.9,369.1,120.9,369.1,120.9,369.1L120.9,369.1z M326.4,375.7
	c42.4-10.6,71.9-48.5,71.9-92.2c0-43.6-29.5-81.4-71.6-92.1c-5.3-1.4-10.8,1.9-12.2,7.2s1.9,10.8,7.2,12.2
	c33.3,8.4,56.5,38.3,56.5,72.7c0,34.5-23.4,64.4-56.8,72.8c-5.4,1.3-8.6,6.8-7.3,12.1c1.1,4.5,5.2,7.6,9.7,7.6
	C324.8,376,325.6,375.9,326.4,375.7z"/>
</svg>
